<svg xmlns="http://www.w3.org/2000/svg" width="84" height="86.027" viewBox="0 0 84 86.027">
  <g id="Grupo_1251490" data-name="Grupo 1251490" transform="translate(-706 -1402.729)">
    <g id="Grupo_1251489" data-name="Grupo 1251489">
      <g id="Grupo_1211648" data-name="Grupo 1211648" transform="translate(526.332 -4118.271)">
        <rect id="Rectángulo_402006" data-name="Rectángulo 402006" width="84" height="86.027" rx="5" transform="translate(179.668 5521)" fill="#1d4bc9"/>
      </g>
      <g id="Grupo_1251321" data-name="Grupo 1251321" transform="translate(404.382 1033.232)">
        <path id="Trazado_1059395" data-name="Trazado 1059395" d="M328.222,431.407a1.417,1.417,0,0,0,.091-.272c.067-3.025.154-2.862-2.655-2.841-1.423.011-2.846.008-4.269,0a3.237,3.237,0,0,1-3.533-3.2,3.192,3.192,0,0,1,3.493-3.13c1.847-.006,3.694,0,5.54,0,1.162,0,1.429-.281,1.439-1.457,0-.51,0-1.021,0-1.659h-4.382c-2.862,0-4-1.144-4-4.023,0-8.6.041-17.2-.03-25.795-.017-2.065,1.125-4.052,3.841-3.8.445.041.9.006,1.4.006v2.045c-.628,0-1.253-.017-1.877,0-.74.025-1.205.371-1.2,1.168q.011,10.853.027,21.706a.889.889,0,0,0,.053.162h5.148q0-12.79.008-25.525a5.476,5.476,0,0,1,.2-1.7,2.994,2.994,0,0,1,2.994-2.07q13.624-.016,27.249,0a3.071,3.071,0,0,1,3.156,3.073c.017.332.009.666.009,1q0,11.036,0,22.071v3.154h5.187c.014-.29.042-.609.042-.927q0-10.218,0-20.436c0-1.437-.251-1.682-1.7-1.686-.448,0-.895,0-1.393,0v-2a22.545,22.545,0,0,1,2.708.02,3.077,3.077,0,0,1,2.5,3.127c.025,1.725.007,3.451.007,5.177q0,10.627,0,21.254c0,2.861-1.139,3.987-4.034,3.987H350.5v4.2c1.31,0,2.574-.009,3.838,0,.986.009,1.328.327,1.346,1.292.022,1.211.02,2.422,0,3.633-.016.975-.357,1.338-1.316,1.339q-10.264.015-20.527,0c-.952,0-1.281-.367-1.3-1.358q-.027-1.771,0-3.542c.014-1.038.337-1.355,1.366-1.363,1.239-.01,2.478,0,3.8,0V418.91h-7.22c0,.582.008,1.176,0,1.77a3.235,3.235,0,0,1-3.354,3.4c-1.937.031-3.875.02-5.813,0-.731-.007-1.272.206-1.348,1.005-.062.663.461,1.048,1.381,1.051,1.877.007,3.754-.006,5.632,0a3.272,3.272,0,0,1,3.5,3.531c0,.54,0,1.08,0,1.734H331.6q14.8,0,29.61-.014a2.546,2.546,0,0,1,2.007.807c1.81,1.869,3.69,3.671,5.483,5.556a2.912,2.912,0,0,1,.626,1.506,13.519,13.519,0,0,1,.025,2.085c0,1.884-.762,2.658-2.623,2.658q-12.761,0-25.523,0-9.809,0-19.619,0c-1.984,0-2.569-.754-2.751-2.748A5.271,5.271,0,0,1,320.9,436.3a37.018,37.018,0,0,0,3.857-3.839,2.808,2.808,0,0,1,2.628-1.056A6.7,6.7,0,0,0,328.222,431.407Zm1.175-41.939v.823q0,9.261,0,18.522c0,1.315.269,1.58,1.611,1.58q13.12,0,26.24,0c1.307,0,1.58-.282,1.581-1.611q0-9.216,0-18.432c0-.29-.025-.581-.04-.882Zm-7.32,23.094c0,.856,0,1.666,0,2.476,0,1.473.186,1.652,1.692,1.652h40.684c.212,0,.424.005.635,0a.962.962,0,0,0,1.048-1.007c.021-1.021.005-2.044.005-3.115Zm36.754-25.336c0-.832,0-1.612,0-2.392,0-1.449-.3-1.756-1.739-1.756H331.126c-.242,0-.556-.087-.712.031-.375.284-.911.634-.962,1.014a23.726,23.726,0,0,0-.046,3.1Zm-36.365,50.442H365.73c-1.382-1.37-2.612-2.616-3.882-3.82a1.4,1.4,0,0,0-.892-.292q-16.84-.022-33.681,0a1.407,1.407,0,0,0-.892.292C325.108,435.046,323.872,436.287,322.466,437.668Zm-1.407,4.215h46.076V439.86H321.059Zm13.634-14.715H353.5v-2.011H334.693Zm13.546-4.148v-4.113H340v4.113Z" transform="translate(0)" fill="#4ff0a2"/>
        <path id="Trazado_1059396" data-name="Trazado 1059396" d="M451.388,442.413c-.384.954-.982,2.46-1.6,3.957a7.146,7.146,0,0,1-.619,1.21.988.988,0,0,1-1.776.012,34.789,34.789,0,0,1-2.152-5.174,3.031,3.031,0,0,1,2.834-3.748C449.82,438.535,451.383,440,451.388,442.413Zm-3.284,2.025.308.025a23.747,23.747,0,0,0,.849-2.519,1.142,1.142,0,0,0-.472-.948,1.2,1.2,0,0,0-1.065.011,1.145,1.145,0,0,0-.445.958A23.193,23.193,0,0,0,448.1,444.438Z" transform="translate(-104.153 -47.175)" fill="#4ff0a2"/>
        <path id="Trazado_1059397" data-name="Trazado 1059397" d="M452.932,506.585a2.086,2.086,0,1,1,.021-4.171,2.133,2.133,0,0,1,2.072,2.1A2.106,2.106,0,0,1,452.932,506.585Z" transform="translate(-108.806 -99.347)" fill="#4ff0a2"/>
        <path id="Trazado_1059398" data-name="Trazado 1059398" d="M551.522,562.636h-1.909v-1.943h1.909Z" transform="translate(-189.657 -147.039)" fill="#4ff0a2"/>
        <path id="Trazado_1059399" data-name="Trazado 1059399" d="M395.479,398.79v1.93h-1.945v-1.93Z" transform="translate(-61.931 -14.547)" fill="#4ff0a2"/>
        <path id="Trazado_1059400" data-name="Trazado 1059400" d="M418.5,400.653h-1.93v-1.965h1.93Z" transform="translate(-80.784 -14.463)" fill="#4ff0a2"/>
        <path id="Trazado_1059401" data-name="Trazado 1059401" d="M439.8,398.567h1.925v1.962H439.8Z" transform="translate(-99.793 -14.364)" fill="#4ff0a2"/>
        <path id="Trazado_1059402" data-name="Trazado 1059402" d="M433.32,676.083v2H416.67v-2Z" transform="translate(-80.864 -241.468)" fill="#4ff0a2"/>
        <path id="Trazado_1059403" data-name="Trazado 1059403" d="M370.186,675.9h1.968v2.03h-1.968Z" transform="translate(-42.824 -241.32)" fill="#4ff0a2"/>
        <path id="Trazado_1059404" data-name="Trazado 1059404" d="M543.709,675.887h1.957v2.062h-1.957Z" transform="translate(-184.826 -241.308)" fill="#4ff0a2"/>
        <path id="Trazado_1059405" data-name="Trazado 1059405" d="M395.489,676.109v2h-1.946v-2Z" transform="translate(-61.938 -241.489)" fill="#4ff0a2"/>
        <path id="Trazado_1059406" data-name="Trazado 1059406" d="M520.668,678.035v-2h1.95v2Z" transform="translate(-165.97 -241.426)" fill="#4ff0a2"/>
      </g>
    </g>
  </g>
</svg>
