<svg xmlns="http://www.w3.org/2000/svg" width="84" height="86.027" viewBox="0 0 84 86.027">
  <g id="Grupo_1251492" data-name="Grupo 1251492" transform="translate(-841 -971.705)">
    <g id="Grupo_1251491" data-name="Grupo 1251491">
      <g id="Grupo_1251441" data-name="Grupo 1251441" transform="translate(135 -4838)">
        <g id="Grupo_1238193" data-name="Grupo 1238193" transform="translate(526.332 288.705)">
          <rect id="Rectángulo_402006" data-name="Rectángulo 402006" width="84" height="86.027" rx="5" transform="translate(179.668 5521)" fill="#1d4bc9"/>
        </g>
      </g>
      <g id="Grupo_1251442" data-name="Grupo 1251442" transform="translate(193.997 -98.49)">
        <path id="Trazado_1059604" data-name="Trazado 1059604" d="M715.588,1148.959c-.079.187-.166.371-.237.561a1.278,1.278,0,0,1-1.37.888c-1.554-.025-3.109-.008-4.817-.008v1.025q0,5.749,0,11.5c0,2.1-.916,3.014-3.008,3.014q-8.362,0-16.723,0c-2.01,0-2.882-.884-2.883-2.919q-.005-6.31,0-12.62c0-2.534.421-3.057,2.961-3.538,0-.426.016-.883,0-1.338a8.38,8.38,0,0,1,6.5-8.661,2.929,2.929,0,0,0,.366-.137.876.876,0,0,0-.756-.987c-.269-.066-.516-.217-.781-.3-2.132-.694-1.688-1.039-1.711-2.565-.018-1.121.017-2.244-.01-3.365a1.162,1.162,0,0,1,.913-1.336c1.69-.323,2.405-1.426,3.026-2.95a3.6,3.6,0,0,0-.077-3.385c-.612-1.154-.529-1.284.371-2.188q1.318-1.324,2.641-2.644c.761-.756.973-.864,1.872-.356a3.156,3.156,0,0,0,3.769.017.937.937,0,0,1,.429-.175c1.321-.153,1.791-1.092,2.159-2.2.449-1.358.591-1.418,2.015-1.419,1.215,0,2.43.022,3.644-.008.752-.018,1.331.24,1.484.987.336,1.636,1.4,2.347,2.891,2.956a3.649,3.649,0,0,0,3.454-.071c1.138-.61,1.243-.52,2.172.406.9.9,1.8,1.816,2.716,2.7a1.258,1.258,0,0,1,.3,1.745,3.16,3.16,0,0,0-.042,3.849,1.089,1.089,0,0,1,.215.513c.1,1.243,1,1.626,2,2a6.991,6.991,0,0,0,2.848.582,3.275,3.275,0,0,1,2.847,1.527,1.316,1.316,0,0,0,1.315.637c.557-.042,1.121-.019,1.681-.006,1.16.027,1.488.359,1.522,1.515.007.216.023.432.042.771h.921c1.495,0,2.99-.026,4.484.015a2.774,2.774,0,0,1,2.772,2.723c.012.186.005.374.005.561q0,15.144.007,30.288a2.923,2.923,0,0,1-1.737,3.022,3.533,3.533,0,0,1-1.359.251q-12.8.021-25.6.007a2.871,2.871,0,0,1-3.076-3.112q-.015-8.366,0-16.733v-1Zm8.286-13.729c-.055-.025-.111-.073-.167-.073-1.495-.011-2.989-.022-4.484-.022-1.2,0-1.27.073-1.27,1.266q0,14.958,0,29.915c0,1.3.009,1.309,1.3,1.309h24.759c.187,0,.374,0,.561,0,.507,0,.735-.264.727-.759,0-.218,0-.436,0-.654q0-14.817,0-29.634c0-.218-.01-.437,0-.654a.659.659,0,0,0-.724-.772c-1.737-.012-3.474,0-5.2,0a2.387,2.387,0,0,0-.089.35c-.1,1.595-.3,1.781-1.919,1.782H726.16c-1.966,0-2-.027-2.238-1.969C723.918,1135.28,723.891,1135.257,723.875,1135.231Zm-28.478-5.253a1.241,1.241,0,0,0-.082.257c-.009.654-.016,1.309-.017,1.963,0,1.111-.022,1.195,1.066,1.493a2.552,2.552,0,0,1,2.133,2.255.491.491,0,0,0,.076.266c.2.2.393.488.635.543a8.306,8.306,0,0,1,6.868,7.09c.1.542.337.879.838.957a3.4,3.4,0,0,1,3.132,2.924c.079.419.379.513.765.5.435-.02.872,0,1.308,0,1.429,0,1.465.012,1.9-1.291.292-.874.636-1.634,1.683-1.752v-4.816a9.586,9.586,0,0,1-13.112-7.016,9.484,9.484,0,0,1,8.179-11.061,8.995,8.995,0,0,1,6.835,1.895,9.577,9.577,0,0,1,3.687,8.724h2.641c.017-.25.035-.435.041-.62.038-1.278.342-1.582,1.629-1.6q.981-.013,1.962,0c.472.006.75-.177.776-.714-.575-.223-1.116-.46-1.675-.641a1.878,1.878,0,0,1-1.252-1.365,22.791,22.791,0,0,0-1.34-3.269,2,2,0,0,1-.071-1.945c.264-.553.505-1.117.7-1.554l-2.289-2.43c-.625.281-1.218.543-1.808.813a1.838,1.838,0,0,1-1.689-.082,28.132,28.132,0,0,0-3.347-1.39,1.939,1.939,0,0,1-1.407-1.332c-.182-.583-.44-1.143-.646-1.665h-3.292c-.216.548-.452,1.056-.616,1.587a2.043,2.043,0,0,1-1.537,1.438,19.49,19.49,0,0,0-3.174,1.323,1.922,1.922,0,0,1-1.857.078c-.558-.267-1.128-.507-1.872-.839-.234.3-.467.631-.736.931-.435.484-1.179.9-1.267,1.431-.1.574.4,1.256.663,1.876a1.727,1.727,0,0,1-.017,1.519c-.546,1.182-1.071,2.377-1.512,3.6a1.863,1.863,0,0,1-1.226,1.276C696.489,1129.521,695.922,1129.771,695.4,1129.978Zm11.479,33.715v-14.5H688.808v14.5Zm4.929-24.755a20.044,20.044,0,0,0,2.2-.359c1.651-.452,1.723-.589,1.729-2.3,0-.093,0-.187,0-.281a2.812,2.812,0,0,1,2.68-3.008c.475-.059.629-.238.669-.688a7.243,7.243,0,1,0-14.352.558A7.305,7.305,0,0,0,711.806,1138.938Zm25.178-3.877v-2.219c-.818,0-1.561-.018-2.3.006a1.169,1.169,0,0,1-1.3-.83,1.781,1.781,0,0,0-1.79-1.365,1.756,1.756,0,0,0-1.713,1.338,1.211,1.211,0,0,1-1.372.858c-.736-.029-1.475-.006-2.257-.006v2.219Zm-33.015,11.873c0-.784.023-1.524,0-2.262a6.14,6.14,0,0,0-8.732-5.254c-2.726,1.321-4.041,4.141-3.461,7.5H692.8c0-.653-.02-1.242,0-1.828a5.033,5.033,0,1,1,10.06.158c-.031.547,0,1.1,0,1.688Zm-3.359,0a19.892,19.892,0,0,0-.018-2.43,2.8,2.8,0,0,0-5.5-.09,17.508,17.508,0,0,0-.022,2.519Z" transform="translate(-27.511 -25.238)" fill="#4ff0a2"/>
        <path id="Trazado_1059605" data-name="Trazado 1059605" d="M922.809,1096.044a7.089,7.089,0,0,1-7.149-7.09,7.116,7.116,0,0,1,14.232-.049A7.048,7.048,0,0,1,922.809,1096.044Zm-4.939-7.1a4.923,4.923,0,1,0,9.845-.014,4.922,4.922,0,0,0-9.845.014Z" transform="translate(-213.801)" fill="#4ff0a2"/>
        <path id="Trazado_1059606" data-name="Trazado 1059606" d="M659.812,1096.046a7.094,7.094,0,0,1-7.1-7.144,7.118,7.118,0,0,1,14.237.057A7.059,7.059,0,0,1,659.812,1096.046Zm-4.894-7.129a4.931,4.931,0,1,0,4.943-4.887A4.876,4.876,0,0,0,654.917,1088.918Z" transform="translate(0 -0.002)" fill="#4ff0a2"/>
        <path id="Trazado_1059607" data-name="Trazado 1059607" d="M879.885,1257.93c0,.467.014.934,0,1.4a2.175,2.175,0,0,1-2.191,2.3,28.53,28.53,0,0,1-3.079,0,2.122,2.122,0,0,1-2.184-2.281c-.02-1.027-.025-2.055,0-3.082a2.074,2.074,0,0,1,2.11-2.147c1.056-.045,2.117-.045,3.172,0a2.139,2.139,0,0,1,2.165,2.217C879.9,1256.87,879.884,1257.4,879.885,1257.93Zm-2.229,1.484v-3.033h-3.035v3.033Z" transform="translate(-178.636 -140.076)" fill="#4ff0a2"/>
        <path id="Trazado_1059608" data-name="Trazado 1059608" d="M872.462,1354.185c0-.529-.021-1.059,0-1.587a2.065,2.065,0,0,1,2.071-2.078q1.632-.047,3.267,0a2.057,2.057,0,0,1,2.087,1.977,33.479,33.479,0,0,1,.008,3.454,2.1,2.1,0,0,1-2.135,2.053c-1.056.047-2.117.047-3.173,0a2.1,2.1,0,0,1-2.13-2.232c-.016-.529,0-1.058,0-1.588Zm2.176-1.448v3h3.033v-3Z" transform="translate(-178.669 -218.463)" fill="#4ff0a2"/>
        <path id="Trazado_1059609" data-name="Trazado 1059609" d="M872.471,1306.212c0-.56-.025-1.121.005-1.679a1.964,1.964,0,0,1,1.935-1.992c1.179-.048,2.363-.047,3.542,0a1.982,1.982,0,0,1,1.939,1.9,33.071,33.071,0,0,1,0,3.543,2.043,2.043,0,0,1-1.995,1.973,33.853,33.853,0,0,1-3.449,0,2.037,2.037,0,0,1-1.981-2.069c-.026-.559,0-1.12,0-1.679Zm5.239-1.51h-3.081v3.049h3.081Z" transform="translate(-178.674 -179.441)" fill="#4ff0a2"/>
        <path id="Trazado_1059610" data-name="Trazado 1059610" d="M929.471,1306.072c-1.152,0-2.3.007-3.457,0-.945-.008-1.409-.388-1.4-1.117.008-.69.462-1.091,1.337-1.1q3.5-.022,7.007,0a1.214,1.214,0,0,1,1.35,1.127c-.013.627-.562,1.075-1.38,1.085C931.775,1306.082,930.623,1306.072,929.471,1306.072Z" transform="translate(-221.081 -180.53)" fill="#4ff0a2"/>
        <path id="Trazado_1059611" data-name="Trazado 1059611" d="M929.406,1359.192c-1.213,0-2.426.021-3.639-.007-.788-.018-1.2-.46-1.159-1.149.037-.662.441-1,1.305-1.013,1.306-.02,2.612-.007,3.918-.006,1.088,0,2.177-.005,3.265.009a1.032,1.032,0,0,1,1.143.885,1.464,1.464,0,0,1-.425,1.037,1.523,1.523,0,0,1-.957.237c-1.15.026-2.3.01-3.452.01Z" transform="translate(-221.074 -223.76)" fill="#4ff0a2"/>
        <path id="Trazado_1059612" data-name="Trazado 1059612" d="M929.458,1260.832c1.244,0,2.487-.006,3.731,0a.937.937,0,0,1,1.025.773,1.624,1.624,0,0,1-.315,1.071,1.171,1.171,0,0,1-.839.291c-2.425.022-4.85.027-7.275,0-.787-.008-1.155-.385-1.169-1.042-.015-.694.38-1.082,1.2-1.1,1.212-.023,2.425-.006,3.637-.006Z" transform="translate(-221.082 -145.548)" fill="#4ff0a2"/>
        <path id="Trazado_1059613" data-name="Trazado 1059613" d="M927.534,1278.4c-.621,0-1.244.027-1.864-.007a.988.988,0,0,1-1.059-1.051.957.957,0,0,1,1.037-1.064c1.272-.042,2.548-.041,3.82.006a1.014,1.014,0,0,1,1.038,1.083,1.074,1.074,0,0,1-1.108,1.027C928.777,1278.422,928.155,1278.4,927.534,1278.4Z" transform="translate(-221.078 -158.088)" fill="#4ff0a2"/>
        <path id="Trazado_1059614" data-name="Trazado 1059614" d="M927.5,1374.753c-.621,0-1.244.03-1.863-.008a.984.984,0,0,1-1.025-1.078.925.925,0,0,1,.982-1.01q1.955-.057,3.912,0a.984.984,0,0,1,1,1.014,1.042,1.042,0,0,1-1.051,1.073C928.8,1374.782,928.149,1374.753,927.5,1374.753Z" transform="translate(-221.077 -236.458)" fill="#4ff0a2"/>
        <path id="Trazado_1059615" data-name="Trazado 1059615" d="M927.549,1321.587c-.591,0-1.183.02-1.773,0-.759-.031-1.159-.4-1.175-1.043a1.024,1.024,0,0,1,1.112-1.1q1.818-.047,3.638,0a1.073,1.073,0,0,1,1.149,1.086,1.09,1.09,0,0,1-1.18,1.059C928.732,1321.609,928.14,1321.587,927.549,1321.587Z" transform="translate(-221.07 -193.189)" fill="#4ff0a2"/>
        <path id="Trazado_1059616" data-name="Trazado 1059616" d="M730.855,1313.441a3.509,3.509,0,0,1,3.336,2.061,3.386,3.386,0,0,1-.371,3.773,2.226,2.226,0,0,0-.487,1.536c.024.808.027,1.618-.005,2.426a2.425,2.425,0,0,1-4.849.09,26.1,26.1,0,0,1-.014-2.612,2.128,2.128,0,0,0-.476-1.442,3.417,3.417,0,0,1-.325-3.857A3.457,3.457,0,0,1,730.855,1313.441Zm-.128,9.971.336.035a7.2,7.2,0,0,0,.111-.835c.016-.745.023-1.49,0-2.235a2.439,2.439,0,0,1,.82-2.317,1.386,1.386,0,0,0-.09-2.07,1.457,1.457,0,0,0-2.022.02,1.423,1.423,0,0,0-.051,2.075,2.283,2.283,0,0,1,.814,2.225c-.016.776-.01,1.552,0,2.328C730.651,1322.9,730.7,1323.154,730.727,1323.412Z" transform="translate(-60.579 -188.333)" fill="#4ff0a2"/>
        <path id="Trazado_1059617" data-name="Trazado 1059617" d="M923.108,1211.607c.3-.18.62-.514.911-.494.242.017.6.424.647.7a.6.6,0,0,1-.724.71c-.312-.061-.571-.39-.853-.6Z" transform="translate(-219.84 -105.13)" fill="#4ff0a2"/>
        <path id="Trazado_1059618" data-name="Trazado 1059618" d="M937.261,1108.374c.894-.81,1.715-1.566,2.55-2.307.677-.6,1.248-.646,1.715-.166s.388,1.174-.269,1.78q-1.542,1.421-3.11,2.814c-.745.658-1.2.632-1.928-.064-.359-.344-.713-.694-1.055-1.053-.568-.6-.629-1.275-.168-1.726.438-.429,1.066-.368,1.653.161C936.831,1107.977,937.012,1108.145,937.261,1108.374Z" transform="translate(-229.273 -19.317)" fill="#4ff0a2"/>
        <path id="Trazado_1059619" data-name="Trazado 1059619" d="M674.285,1108.327c.982-.878,1.89-1.721,2.833-2.522a.986.986,0,0,1,1.423.028,1.125,1.125,0,0,1,.04,1.522,1.146,1.146,0,0,1-.131.133c-1.126,1.024-2.239,2.062-3.383,3.065a1.085,1.085,0,0,1-1.659-.018c-.458-.418-.9-.861-1.316-1.318a1.082,1.082,0,1,1,1.5-1.545C673.807,1107.852,674,1108.054,674.285,1108.327Z" transform="translate(-15.453 -19.269)" fill="#4ff0a2"/>
      </g>
    </g>
  </g>
</svg>
