<svg xmlns="http://www.w3.org/2000/svg" width="96" height="96" viewBox="0 0 96 96">
  <g id="Grupo_1251489" data-name="Grupo 1251489" transform="translate(-963.746 -1761.322)">
    <g id="Grupo_1251488" data-name="Grupo 1251488">
      <g id="Grupo_1251340" data-name="Grupo 1251340">
        <path id="Elipse_5729" data-name="Elipse 5729" d="M48,0A48,48,0,1,1,0,48,48,48,0,0,1,48,0Z" transform="translate(963.746 1761.322)" fill="#112d78"/>
        <g id="Grupo_1251337" data-name="Grupo 1251337" transform="translate(223.745 951.584)">
          <path id="Trazado_1059417" data-name="Trazado 1059417" d="M785.769,857.732v-3.6H762v3.615a9.906,9.906,0,0,1,7.23,4.94,9.336,9.336,0,0,1,1.135,6.459,9.755,9.755,0,0,1-19.307-.6,9.419,9.419,0,0,1,2.039-7.111,10.049,10.049,0,0,1,6.491-3.694c0-1.45,0-2.845,0-4.241,0-1.471.284-1.757,1.753-1.758q11.553,0,23.106,0h1.271v-3.511a3.7,3.7,0,0,1-1.188-.541,3.557,3.557,0,0,1-.6-1.235,1.075,1.075,0,0,0-.818-.78,1.6,1.6,0,0,1-.551-.23,2.011,2.011,0,0,0-2.314-.026,1.317,1.317,0,0,1-1.794-.305q-.936-.972-1.908-1.91a1.266,1.266,0,0,1-.323-1.777c.886-1.26-.044-2.262-.46-3.307-.11-.277-.651-.406-1.014-.553-1.029-.418-1.152-.576-1.159-1.7-.005-.867-.011-1.734,0-2.6.014-.893.185-1.279,1.057-1.456,1.548-.313,1.491-1.72,1.993-2.723.119-.239-.206-.742-.4-1.085a1.434,1.434,0,0,1,.366-1.955c.611-.565,1.206-1.153,1.765-1.769a1.387,1.387,0,0,1,1.958-.343c1.257.848,2.191-.16,3.22-.515.246-.085.368-.6.5-.933.443-1.111.627-1.25,1.852-1.258.8-.006,1.6.015,2.4,0a1.382,1.382,0,0,1,1.561,1.1,2.127,2.127,0,0,0,1.489,1.548,2.411,2.411,0,0,0,2.413.018,1.312,1.312,0,0,1,1.79.335c.618.653,1.267,1.278,1.908,1.909.5.493.764,1.064.325,1.693-.869,1.242-.024,2.266.405,3.318.107.262.569.414.9.544,1.2.478,1.3.607,1.308,1.907,0,.867-.005,1.734,0,2.6a1.107,1.107,0,0,1-.82,1.226,2.487,2.487,0,0,0-1.939,2.011,5.337,5.337,0,0,1-.359.819c.184.44.335.884.548,1.3A1.166,1.166,0,0,1,797.62,843c-.739.769-1.495,1.522-2.259,2.266a1.1,1.1,0,0,1-1.466.209c-1.279-.94-2.322-.03-3.417.376-.215.08-.384.46-.451.731a1.728,1.728,0,0,1-1.8,1.544v3.607h21.459c.267,0,.534-.008.8,0,.969.04,1.331.382,1.346,1.339.02,1.3,0,2.6.008,3.9,0,.228.029.455.047.7,5.7,1,9.58,4.093,10.809,9.814a11.467,11.467,0,0,1-4.613,12.277c-4.664,3.481-9.582,3.279-14.563.283-.556.535-1.144,1.065-1.681,1.642a1.079,1.079,0,0,0-.22.71,2.385,2.385,0,0,1-.77,1.878c-1.962,1.9-3.908,3.822-5.886,5.708a2.2,2.2,0,0,1-3.286-.043c-.69-.676-1.366-1.369-2.015-2.085a2.148,2.148,0,0,1,.1-3.274c1.922-1.9,3.873-3.762,5.806-5.646a2.44,2.44,0,0,1,1.978-.771,1.059,1.059,0,0,0,.718-.2c.619-.548,1.192-1.147,1.768-1.712a12.516,12.516,0,0,1,9.5-18.6v-3.529H788.22v3.615a9.917,9.917,0,0,1,7.259,4.92,9.392,9.392,0,0,1,1.074,6.762,9.755,9.755,0,0,1-19.277-1.175A9.879,9.879,0,0,1,785.769,857.732ZM779.7,843.1a4,4,0,0,0,.521-.193,2.159,2.159,0,0,1,2.524.067,3.351,3.351,0,0,0,1.278.544,2.128,2.128,0,0,1,1.925,1.742c.134.6.614.505,1.038.5s.914.117,1.048-.484a2.176,2.176,0,0,1,2.012-1.773,1.757,1.757,0,0,0,.641-.27c1.144-.721,2.305-1.04,3.491-.121l1.252-1.2c-.694-1.712-.693-1.712.043-3.315a3.244,3.244,0,0,0,.293-.741,2.547,2.547,0,0,1,2.059-2.261c.087-.019.158-.11.25-.177v-1.69c-1.592-.141-2.1-1.3-2.429-2.617a.833.833,0,0,0-.105-.279,2.56,2.56,0,0,1-.114-3.311l-1.247-1.357a2.563,2.563,0,0,1-3.336-.044,1.379,1.379,0,0,0-.557-.212,2.727,2.727,0,0,1-2.395-2.191c-.012-.052-.093-.089-.145-.136h-1.594a4.4,4.4,0,0,0-.332.753,1.71,1.71,0,0,1-1.436,1.344,3.881,3.881,0,0,0-1.3.485,2.657,2.657,0,0,1-3.157.121c-.048-.03-.127-.01,0,0l-1.381,1.1a5.8,5.8,0,0,0,.288.668,1.964,1.964,0,0,1-.083,2.242,5.905,5.905,0,0,0-.726,1.742,1.725,1.725,0,0,1-1.331,1.445.964.964,0,0,0-.825,1.233c.042.255.046.517.067.772a4.712,4.712,0,0,0,.676.3,1.76,1.76,0,0,1,1.412,1.492,3.606,3.606,0,0,0,.547,1.385,2.507,2.507,0,0,1,.055,3.052c-.029.046,0,.126,0,.262Zm-12.43,27.768c1.5-2.1,1.389-6.612-1.914-9.23a7.494,7.494,0,0,0-9.853.562c-2.694,2.646-2.643,6.952-1.261,8.639l3.087-3.086c-1.217-2.239-1-4.239.7-5.671a4.152,4.152,0,0,1,5.257-.142,4.067,4.067,0,0,1,1.5,2.188,4.255,4.255,0,0,1-.615,3.611Zm26.245-.011c1.744-2.612.969-6.847-1.762-9.093a7.473,7.473,0,0,0-10.008.438c-2.385,2.35-2.895,6.5-1.162,8.717a20.941,20.941,0,0,1,1.382-1.683,20.387,20.387,0,0,1,1.664-1.368c-1.233-2.351-.982-4.434.677-5.819a4.163,4.163,0,0,1,5.179-.142c1.806,1.349,2.1,3.324.954,5.863Zm27.133-.794a9.843,9.843,0,0,0-9.909-10.024,9.966,9.966,0,1,0,9.909,10.024Zm-64.54,3.127a7.279,7.279,0,0,0,8.884.382.737.737,0,0,0,.279-1.016,4.962,4.962,0,0,0-4.7-3.109A4.726,4.726,0,0,0,756.107,873.188Zm30.772,1.734a8.353,8.353,0,0,0,4.182-1.228.858.858,0,0,0,.41-1.225,4.822,4.822,0,0,0-8.964.026.818.818,0,0,0,.361,1.157A8.071,8.071,0,0,0,786.879,874.921Zm10.276,5.718-5.775,5.617,2.011,2.034,5.841-5.669Zm-36.412-17.232a1.821,1.821,0,0,0-1.833,1.846,1.878,1.878,0,0,0,1.808,1.888,1.92,1.92,0,0,0,1.894-1.914A1.866,1.866,0,0,0,760.743,863.408Zm24.41,1.855a1.843,1.843,0,1,0,3.683-.044,1.842,1.842,0,0,0-3.683.044ZM800.017,880.1l1.583-1.715C801.061,878.292,799.935,879.378,800.017,880.1Z" transform="translate(0 0)" fill="#fff"/>
          <path id="Trazado_1059418" data-name="Trazado 1059418" d="M903.008,867.561a6.941,6.941,0,1,1,7.03-6.857A6.993,6.993,0,0,1,903.008,867.561Zm-4.543-6.975a4.6,4.6,0,1,0,4.66-4.585A4.6,4.6,0,0,0,898.466,860.585Z" transform="translate(-116.071 -25.968)" fill="#fff"/>
          <path id="Trazado_1059419" data-name="Trazado 1059419" d="M1012.465,1037.3a9.14,9.14,0,0,1-9.239-9.2,9.243,9.243,0,1,1,18.487.011A9.122,9.122,0,0,1,1012.465,1037.3Zm6.9-9.209a6.9,6.9,0,1,0-6.93,6.906A6.792,6.792,0,0,0,1019.369,1028.1Z" transform="translate(-201.766 -158.088)" fill="#fff"/>
          <path id="Trazado_1059420" data-name="Trazado 1059420" d="M1035.987,1050.382c.7.648,1.263,1.123,1.775,1.644a1.2,1.2,0,0,1,.159,1.764,1.173,1.173,0,0,1-1.762-.1c-.295-.269-.563-.567-.848-.846-.255-.25-.518-.493-.915-.87-.535.6-1,1.163-1.516,1.675-.62.613-1.255.653-1.757.18a1.212,1.212,0,0,1,.155-1.837c.515-.516,1.081-.982,1.759-1.592-.721-.659-1.343-1.165-1.887-1.743a1.15,1.15,0,0,1,.294-1.913,1.2,1.2,0,0,1,1.369.319c.286.279.561.568.846.848.259.254.525.5.845.806.525-.513,1.016-1,1.512-1.477.713-.687,1.4-.771,1.912-.242.492.5.382,1.207-.3,1.917-.162.167-.321.339-.495.493C1036.807,1049.692,1036.475,1049.967,1035.987,1050.382Z" transform="translate(-223.798 -180.322)" fill="#fff"/>
        </g>
      </g>
    </g>
  </g>
</svg>
